<svg width="47" height="47" viewBox="0 0 47 47" fill="none" xmlns="http://www.w3.org/2000/svg">
<path fill-rule="evenodd" clip-rule="evenodd" d="M23.5001 0.583008C26.5096 0.582994 29.4896 1.17574 32.27 2.3274C35.0504 3.47906 37.5767 5.16709 39.7047 7.2951C41.8327 9.4231 43.5208 11.9494 44.6724 14.7298C45.8241 17.5102 46.4169 20.4902 46.4169 23.4996C46.4169 36.1562 36.1567 46.4164 23.5001 46.4164C10.8437 46.4164 0.583496 36.1562 0.583496 23.4996C0.583496 10.8432 10.8437 0.583008 23.5001 0.583008ZM25.7919 25.7914H21.2085C15.535 25.7914 10.6642 29.2275 8.56333 34.1325C11.8874 38.7936 17.3388 41.833 23.5001 41.833C29.6614 41.833 35.1129 38.7936 38.437 34.1322C36.3362 29.2275 31.4654 25.7914 25.7919 25.7914ZM23.5001 7.45801C19.7032 7.45801 16.6251 10.5361 16.6251 14.333C16.6251 18.1299 19.7032 21.208 23.5001 21.208C27.2971 21.208 30.3751 18.1299 30.3751 14.333C30.3751 10.5361 27.2972 7.45801 23.5001 7.45801Z" fill="#17242D"/>
</svg>
