<svg width="200" height="200" viewBox="0 0 200 200" fill="none" xmlns="http://www.w3.org/2000/svg">
<g clip-path="url(#clip0_123_38)">
<path d="M17.6349 31.5403L13.5586 29.9762C13.5586 29.9762 13.9633 27.0036 15.4208 24.1743C16.8782 21.3451 24.2478 22.3484 24.2478 22.3484M17.6349 31.5403L21.3065 36.0771M17.6349 31.5403C17.6349 31.5403 23.195 22.205 28.8636 19.9491C34.5322 17.6931 40.849 18.5531 40.849 18.5531C40.849 18.5531 40.0396 24.4982 36.2068 29.0226C32.3739 33.5469 21.3065 36.0771 21.3065 36.0771M21.3065 36.0771L21.8197 40.1838C21.8197 40.1838 24.978 40.6138 28.2713 40.0529C31.5646 39.492 32.5088 32.556 32.5088 32.556" stroke="white" stroke-width="1.5" stroke-linecap="round" stroke-linejoin="round"/>
<path d="M11.157 39.7413L15.6379 38.3329L13.8021 36.0645L11.157 39.7413Z" fill="white" stroke="white" stroke-width="1.5" stroke-linecap="round" stroke-linejoin="round"/>
<path d="M31.2127 26.3238C31.7941 26.4029 32.3259 26.0235 32.4004 25.4762C32.4749 24.929 32.0639 24.4212 31.4825 24.3421C30.901 24.2629 30.3693 24.6424 30.2948 25.1896C30.2203 25.7368 30.6312 26.2446 31.2127 26.3238Z" fill="white" stroke="white" stroke-width="1.5" stroke-linecap="round" stroke-linejoin="round"/>
</g>
<g clip-path="url(#clip1_123_38)">
<path d="M61.7535 47.8096C62.715 49.5989 63.07 52.6364 63.07 52.6364M61.4774 48.8803C61.4774 48.8803 60.9301 45.485 57.464 44.5803C53.998 43.6756 50.7489 46.3438 50.7489 46.3438C50.7489 46.3438 52.2872 49.2067 55.4229 50.2889C58.5587 51.371 61.4774 48.8803 61.4774 48.8803ZM61.3689 47.0939C61.3689 47.0939 58.8396 44.7635 59.9982 41.3739C61.1568 37.9842 65.175 36.7475 65.175 36.7475C65.175 36.7475 66.7134 39.6104 65.8851 42.8225C65.0568 46.0347 61.3689 47.0939 61.3689 47.0939ZM58.7757 54.9439L67.3643 50.329C67.3643 50.329 71.4862 56.4155 66.5312 59.0779C61.5762 61.7404 58.7757 54.9439 58.7757 54.9439Z" stroke="white" stroke-width="1.5" stroke-linecap="round" stroke-linejoin="round"/>
</g>
<path d="M152.833 85.6752C152.969 87.7018 152.038 90.6148 152.038 90.6148M152.139 86.5362C152.139 86.5362 153.043 83.218 150.26 80.9625C147.477 78.707 143.416 79.795 143.416 79.795C143.416 79.795 143.635 83.0376 146.043 85.3183C148.452 87.599 152.139 86.5362 152.139 86.5362ZM152.778 84.8645C152.778 84.8645 151.437 81.6975 153.892 79.089C156.348 76.4805 160.518 77.0139 160.518 77.0139C160.518 77.0139 160.736 80.2565 158.655 82.8398C156.574 85.423 152.778 84.8645 152.778 84.8645ZM147.174 90.9425L156.902 90.287C156.902 90.287 158.142 97.5325 152.53 97.9107C146.917 98.2889 147.174 90.9425 147.174 90.9425Z" stroke="white" stroke-width="1.5" stroke-linecap="round" stroke-linejoin="round"/>
<g clip-path="url(#clip2_123_38)">
<path d="M11.5439 94.4402C10.555 98.7181 13.3538 103.022 17.7911 104.048C22.1778 105.058 26.6895 102.186 27.5494 98.4664C26.1199 98.7891 21.9748 99.1372 19.9756 96.0626C17.9765 92.9881 20.1225 89.5655 21.0522 88.4742C17.1937 87.5823 12.5212 90.2119 11.5439 94.4402Z" stroke="white" stroke-width="1.5" stroke-linecap="round" stroke-linejoin="round"/>
</g>
<g clip-path="url(#clip3_123_38)">
<path d="M155.079 39.0306C154.09 43.3084 149.793 45.9725 145.487 44.9772C141.232 43.9896 138.546 39.4541 139.406 35.7342C140.51 36.6427 143.968 38.7482 147.038 36.8453C150.107 34.9423 149.719 30.9339 149.382 29.5497C153.126 30.4152 156.057 34.8023 155.079 39.0306Z" stroke="white" stroke-width="1.5" stroke-linecap="round" stroke-linejoin="round"/>
</g>
<g clip-path="url(#clip4_123_38)">
<path d="M76.2745 84.1467L75.8223 83.9334M76.4705 73.1826L84.1582 76.8087L78.8258 88.1142L71.138 84.4882L76.4705 73.1826Z" stroke="white" stroke-width="1.5" stroke-linecap="round" stroke-linejoin="round"/>
</g>
<g clip-path="url(#clip5_123_38)">
<path d="M179.881 61.1981L179.399 61.3304M172.896 52.7451L181.093 50.4962L184.4 62.5507L176.203 64.7997L172.896 52.7451Z" stroke="white" stroke-width="1.5" stroke-linecap="round" stroke-linejoin="round"/>
</g>
<g clip-path="url(#clip6_123_38)">
<path d="M58.2745 18.1467L57.8223 17.9334M58.4705 7.18262L66.1582 10.8087L60.8258 22.1142L53.138 18.4882L58.4705 7.18262Z" stroke="white" stroke-width="1.5" stroke-linecap="round" stroke-linejoin="round"/>
</g>
<path d="M94.013 10.873L85.0475 25.44L92.6881 25.213L92.9865 33.1274L101.952 18.5604L94.3114 18.7874L94.013 10.873Z" stroke="white" stroke-width="1.5" stroke-linecap="round" stroke-linejoin="round"/>
<g clip-path="url(#clip7_123_38)">
<path d="M151.244 116.863L145.975 133.137L153.345 131.11L155.505 138.73L160.775 122.457L153.404 124.483L151.244 116.863Z" stroke="white" stroke-width="1.5" stroke-linecap="round" stroke-linejoin="round"/>
</g>
<path d="M20.3609 177.344L11.9951 189.141L18.4538 189.37L18.27 196.063L26.6358 184.267L20.177 184.038L20.3609 177.344Z" stroke="white" stroke-width="1.5" stroke-linecap="round" stroke-linejoin="round"/>
<g clip-path="url(#clip8_123_38)">
<path d="M19.9534 53.6403L16.6544 67.7207L22.7225 65.4969L25.0768 71.7656L28.3758 57.6851L22.3077 59.909L19.9534 53.6403Z" stroke="white" stroke-width="1.5" stroke-linecap="round" stroke-linejoin="round"/>
</g>
<g clip-path="url(#clip9_123_38)">
<path d="M107.585 64.688C106.643 57.4563 103.939 59.2794 103.609 56.7483C103.279 54.2172 106.36 55.2868 105.418 48.0551M96.7372 66.1008C95.7953 58.8692 98.8763 59.9387 98.5467 57.4076C98.217 54.8765 95.5127 56.6996 94.5708 49.4679M92.3071 49.0273L107.494 47.0494M94.6619 67.1066L109.848 65.1286" stroke="white" stroke-width="1.5" stroke-linecap="round" stroke-linejoin="round"/>
</g>
<g clip-path="url(#clip10_123_38)">
<path d="M83.5847 183.688C82.6428 176.456 79.9385 178.279 79.6089 175.748C79.2792 173.217 82.3603 174.287 81.4184 167.055M72.7372 185.101C71.7953 177.869 74.8763 178.939 74.5467 176.408C74.217 173.877 71.5127 175.7 70.5708 168.468M68.3071 168.027L83.4937 166.049M70.6619 186.107L85.8484 184.129" stroke="white" stroke-width="1.5" stroke-linecap="round" stroke-linejoin="round"/>
</g>
<g clip-path="url(#clip11_123_38)">
<path d="M189.16 122.07C188.383 116.103 186.151 117.607 185.879 115.519C185.607 113.43 188.15 114.313 187.372 108.346M180.209 123.236C179.432 117.269 181.974 118.151 181.702 116.063C181.43 113.974 179.199 115.479 178.422 109.512M176.554 109.148L189.085 107.516M178.497 124.066L191.028 122.434" stroke="white" stroke-width="1.5" stroke-linecap="round" stroke-linejoin="round"/>
</g>
<g clip-path="url(#clip12_123_38)">
<path d="M44.7039 106.511L40.6983 108.249C40.6983 108.249 38.906 105.843 37.9657 102.802C37.0255 99.7617 42.9898 95.3183 42.9898 95.3183M44.7039 106.511L50.5018 107.18M44.7039 106.511C44.7039 106.511 42.1377 95.9531 44.6056 90.3735C47.0735 84.7939 52.1858 80.9852 52.1858 80.9852C52.1858 80.9852 55.7704 85.7967 56.2014 91.7107C56.6324 97.6246 50.5018 107.18 50.5018 107.18M50.5018 107.18L53.7435 109.753C53.7435 109.753 56.2996 107.849 58.2583 105.142C60.217 102.436 56.035 96.8227 56.035 96.8227" stroke="white" stroke-width="1.5" stroke-linecap="round" stroke-linejoin="round"/>
<path d="M45.8206 116.903L48.0339 112.76L45.135 112.425L45.8206 116.903Z" fill="white" stroke="white" stroke-width="1.5" stroke-linecap="round" stroke-linejoin="round"/>
<path d="M50.7464 93.2806C51.2169 92.93 51.3309 92.2868 51.001 91.8439C50.671 91.401 50.0221 91.3262 49.5515 91.6768C49.0809 92.0273 48.9669 92.6706 49.2969 93.1134C49.6268 93.5563 50.2758 93.6312 50.7464 93.2806Z" fill="white" stroke="white" stroke-width="1.5" stroke-linecap="round" stroke-linejoin="round"/>
</g>
<g clip-path="url(#clip13_123_38)">
<path d="M181.829 24.7462L181.45 27.8488C181.45 27.8488 179.315 28.0834 177.097 27.562C174.879 27.0405 174.298 21.7479 174.298 21.7479M181.829 24.7462L184.343 21.409M181.829 24.7462C181.829 24.7462 174.381 22.504 171.83 18.9581C169.28 15.4123 168.781 10.8757 168.781 10.8757C168.781 10.8757 173.051 10.4065 176.859 12.2837C180.666 14.1609 184.343 21.409 184.343 21.409M184.343 21.409L187.107 20.34C187.107 20.34 186.857 18.0718 185.897 15.8817C184.936 13.6916 179.954 14.2391 179.954 14.2391" stroke="white" stroke-width="1.5" stroke-linecap="round" stroke-linejoin="round"/>
<path d="M188.649 27.8224L186.894 24.9545L185.637 26.6231L188.649 27.8224Z" fill="white" stroke="white" stroke-width="1.5" stroke-linecap="round" stroke-linejoin="round"/>
<path d="M175.851 16.2203C175.805 15.8027 175.449 15.4992 175.056 15.5424C174.663 15.5856 174.382 15.9591 174.427 16.3767C174.473 16.7943 174.829 17.0978 175.222 17.0546C175.615 17.0114 175.897 16.6379 175.851 16.2203Z" fill="white" stroke="white" stroke-width="1.5" stroke-linecap="round" stroke-linejoin="round"/>
</g>
<path d="M115.427 164.885L114.768 169.201C114.768 169.201 111.778 169.44 108.703 168.62C105.628 167.8 105.035 160.386 105.035 160.386M115.427 164.885L119.075 160.33M115.427 164.885C115.427 164.885 105.12 161.445 101.706 156.388C98.2926 151.332 97.7848 144.977 97.7848 144.977C97.7848 144.977 103.766 144.499 109.004 147.278C114.242 150.057 119.075 160.33 119.075 160.33M119.075 160.33L122.978 158.952C122.978 158.952 122.724 155.775 121.473 152.677C120.223 149.579 113.245 150.137 113.245 150.137" stroke="white" stroke-width="1.5" stroke-linecap="round" stroke-linejoin="round"/>
<path d="M124.821 169.464L122.489 165.386L120.665 167.664L124.821 169.464Z" fill="white" stroke="white" stroke-width="1.5" stroke-linecap="round" stroke-linejoin="round"/>
<path d="M107.433 152.733C107.387 152.148 106.903 151.71 106.352 151.754C105.801 151.798 105.393 152.308 105.44 152.893C105.487 153.477 105.971 153.916 106.521 153.872C107.072 153.828 107.48 153.318 107.433 152.733Z" fill="white" stroke="white" stroke-width="1.5" stroke-linecap="round" stroke-linejoin="round"/>
<g clip-path="url(#clip14_123_38)">
<path d="M165.892 166.554L161.887 168.291C161.887 168.291 160.094 165.886 159.154 162.845C158.214 159.805 164.178 155.361 164.178 155.361M165.892 166.554L171.69 167.223M165.892 166.554C165.892 166.554 163.326 155.996 165.794 150.416C168.262 144.837 173.374 141.028 173.374 141.028C173.374 141.028 176.959 145.84 177.39 151.754C177.821 157.668 171.69 167.223 171.69 167.223M171.69 167.223L174.932 169.796C174.932 169.796 177.488 167.892 179.447 165.185C181.406 162.479 177.223 156.866 177.223 156.866" stroke="white" stroke-width="1.5" stroke-linecap="round" stroke-linejoin="round"/>
<path d="M167.009 176.945L169.222 172.803L166.323 172.468L167.009 176.945Z" fill="white" stroke="white" stroke-width="1.5" stroke-linecap="round" stroke-linejoin="round"/>
<path d="M171.935 153.324C172.405 152.973 172.519 152.33 172.189 151.887C171.859 151.444 171.211 151.369 170.74 151.72C170.269 152.07 170.155 152.714 170.485 153.156C170.815 153.599 171.464 153.674 171.935 153.324Z" fill="white" stroke="white" stroke-width="1.5" stroke-linecap="round" stroke-linejoin="round"/>
</g>
<path d="M88.1327 116.975C88.1316 119.007 87.0051 121.85 87.0051 121.85M87.3823 117.788C87.3823 117.788 88.5089 114.538 85.8852 112.099C83.2615 109.66 79.1361 110.471 79.1361 110.471C79.1361 110.471 79.1344 113.721 81.3831 116.159C83.6318 118.598 87.3823 117.788 87.3823 117.788ZM88.1331 116.163C88.1331 116.163 87.0098 112.912 89.6361 110.476C92.2623 108.04 96.3869 108.855 96.3869 108.855C96.3869 108.855 96.3852 112.105 94.1339 114.541C91.8827 116.977 88.1331 116.163 88.1331 116.163ZM82.1301 121.847L91.8801 121.852C91.8801 121.852 92.6264 129.165 87.0014 129.162C81.3764 129.159 82.1301 121.847 82.1301 121.847Z" stroke="white" stroke-width="1.5" stroke-linecap="round" stroke-linejoin="round"/>
<g clip-path="url(#clip15_123_38)">
<path d="M125.486 16.4833C126.325 18.3328 126.477 21.3872 126.477 21.3872M125.139 17.5331C125.139 17.5331 124.819 14.1088 121.421 12.9746C118.024 11.8403 114.603 14.2855 114.603 14.2855C114.603 14.2855 115.947 17.2448 119.004 18.534C122.06 19.8233 125.139 17.5331 125.139 17.5331ZM125.15 15.7434C125.15 15.7434 122.782 13.2493 124.164 9.94461C125.547 6.63995 129.639 5.67442 129.639 5.67442C129.639 5.67442 130.982 8.63367 129.941 11.7833C128.9 14.9329 125.15 15.7434 125.15 15.7434ZM122.038 23.4027L130.916 19.3718C130.916 19.3718 134.622 25.7201 129.5 28.0456C124.378 30.3711 122.038 23.4027 122.038 23.4027Z" stroke="white" stroke-width="1.5" stroke-linecap="round" stroke-linejoin="round"/>
</g>
<path d="M41.3898 163.71C41.3889 165.507 40.3925 168.022 40.3925 168.022M40.726 164.428C40.726 164.428 41.7227 161.554 39.4018 159.397C37.081 157.239 33.4318 157.956 33.4318 157.956C33.4318 157.956 33.4303 160.831 35.4195 162.988C37.4086 165.145 40.726 164.428 40.726 164.428ZM41.3902 162.991C41.3902 162.991 40.3966 160.116 42.7196 157.961C45.0427 155.806 48.6911 156.527 48.6911 156.527C48.6911 156.527 48.6896 159.402 46.6983 161.557C44.7069 163.712 41.3902 162.991 41.3902 162.991ZM36.0803 168.019L44.7047 168.024C44.7047 168.024 45.3647 174.493 40.3891 174.49C35.4135 174.487 36.0803 168.019 36.0803 168.019Z" stroke="white" stroke-width="1.5" stroke-linecap="round" stroke-linejoin="round"/>
<g clip-path="url(#clip16_123_38)">
<path d="M14.3892 140.652C16.7334 144.365 21.7613 145.404 25.6121 142.973C29.4163 140.566 30.5498 135.339 28.5113 132.111C27.7349 133.354 25.0658 136.544 21.4745 135.802C17.8831 135.059 16.9608 131.126 16.8394 129.698C13.4909 131.812 12.0721 136.983 14.3892 140.652Z" stroke="white" stroke-width="1.5" stroke-linecap="round" stroke-linejoin="round"/>
</g>
<g clip-path="url(#clip17_123_38)">
<path d="M61.483 144.313L60.9892 144.391M55.4714 135.142L63.8664 133.809L65.8254 146.155L57.4304 147.487L55.4714 135.142Z" stroke="white" stroke-width="1.5" stroke-linecap="round" stroke-linejoin="round"/>
</g>
<g clip-path="url(#clip18_123_38)">
<path d="M131.617 62.55L131.54 61.9454M143.018 55.5732L144.323 65.8515L129.208 67.7707L127.903 57.4924L143.018 55.5732Z" stroke="white" stroke-width="1.5" stroke-linecap="round" stroke-linejoin="round"/>
</g>
<g clip-path="url(#clip19_123_38)">
<path d="M140.026 186.38L139.541 186.261M138.044 175.595L146.298 177.624L143.314 189.763L135.059 187.733L138.044 175.595Z" stroke="white" stroke-width="1.5" stroke-linecap="round" stroke-linejoin="round"/>
</g>
<g clip-path="url(#clip20_123_38)">
<path d="M117.013 80.6699L108.047 95.2369L115.688 95.0098L115.987 102.924L124.952 88.3573L117.311 88.5843L117.013 80.6699Z" stroke="white" stroke-width="1.5" stroke-linecap="round" stroke-linejoin="round"/>
</g>
<g clip-path="url(#clip21_123_38)">
<path d="M188.258 69.9722L182.437 79.1904L187.372 79.0309L187.548 84.0283L193.369 74.8101L188.434 74.9696L188.258 69.9722Z" stroke="white" stroke-width="1.5" stroke-linecap="round" stroke-linejoin="round"/>
</g>
<path d="M186.933 177.262L179.072 184.816L183.901 185.844L182.873 190.738L190.734 183.184L185.906 182.156L186.933 177.262Z" stroke="white" stroke-width="1.5" stroke-linecap="round" stroke-linejoin="round"/>
<g clip-path="url(#clip22_123_38)">
<path d="M123.126 132.801C124.612 127.953 122.358 128.323 122.878 126.626C123.398 124.93 125.058 126.499 126.544 121.652M115.788 130.552C117.274 125.704 118.934 127.273 119.454 125.577C119.974 123.88 117.72 124.25 119.206 119.402M117.886 118.468L128.16 121.617M114.172 130.586L124.446 133.736" stroke="white" stroke-width="1.5" stroke-linecap="round" stroke-linejoin="round"/>
</g>
<defs>
<clipPath id="clip0_123_38">
<rect width="34" height="32" fill="white" transform="translate(11.3167 11) rotate(7.75249)"/>
</clipPath>
<clipPath id="clip1_123_38">
<rect width="24" height="26" fill="white" transform="translate(45 44.3599) rotate(-28.2505)"/>
</clipPath>
<clipPath id="clip2_123_38">
<rect width="21.1214" height="20.3626" fill="white" transform="translate(11.5859 84) rotate(13.0152)"/>
</clipPath>
<clipPath id="clip3_123_38">
<rect width="20.4971" height="20.3626" fill="white" transform="matrix(-0.974311 -0.225209 -0.225209 0.974311 159.556 29.6157)"/>
</clipPath>
<clipPath id="clip4_123_38">
<rect width="16" height="16" fill="white" transform="translate(73.8254 70) rotate(25.2516)"/>
</clipPath>
<clipPath id="clip5_123_38">
<rect width="16" height="16" fill="white" transform="translate(168.817 52.0498) rotate(-15.3421)"/>
</clipPath>
<clipPath id="clip6_123_38">
<rect width="16" height="16" fill="white" transform="translate(55.8254 4) rotate(25.2516)"/>
</clipPath>
<clipPath id="clip7_123_38">
<rect width="27" height="28" fill="white" transform="translate(135.621 119.856) rotate(-21.9436)"/>
</clipPath>
<clipPath id="clip8_123_38">
<rect width="22.8277" height="23.6732" fill="white" transform="translate(7 57.2568) rotate(-26.6997)"/>
</clipPath>
<clipPath id="clip9_123_38">
<rect width="23.3369" height="23.3369" fill="white" transform="translate(88 47.0142) rotate(-7.42071)"/>
</clipPath>
<clipPath id="clip10_123_38">
<rect width="23.3369" height="23.3369" fill="white" transform="translate(64 166.014) rotate(-7.42071)"/>
</clipPath>
<clipPath id="clip11_123_38">
<rect width="19.2559" height="19.2559" fill="white" transform="translate(173 107.487) rotate(-7.42071)"/>
</clipPath>
<clipPath id="clip12_123_38">
<rect width="34" height="32" fill="white" transform="translate(25.8115 96.2695) rotate(-36.6862)"/>
</clipPath>
<clipPath id="clip13_123_38">
<rect width="24.3407" height="22.9089" fill="white" transform="translate(168.659 32.6978) rotate(-96.2721)"/>
</clipPath>
<clipPath id="clip14_123_38">
<rect width="34" height="32" fill="white" transform="translate(147 156.312) rotate(-36.6862)"/>
</clipPath>
<clipPath id="clip15_123_38">
<rect width="24" height="26" fill="white" transform="translate(109 11.9219) rotate(-24.4197)"/>
</clipPath>
<clipPath id="clip16_123_38">
<rect width="21.1214" height="20.3626" fill="white" transform="translate(7 133.277) rotate(-32.2704)"/>
</clipPath>
<clipPath id="clip17_123_38">
<rect width="16" height="16" fill="white" transform="translate(51.4934 134.001) rotate(-9.01652)"/>
</clipPath>
<clipPath id="clip18_123_38">
<rect width="19.5026" height="19.5026" fill="white" transform="translate(144.558 50.77) rotate(82.7637)"/>
</clipPath>
<clipPath id="clip19_123_38">
<rect width="16" height="16" fill="white" transform="translate(134.82 173) rotate(13.812)"/>
</clipPath>
<clipPath id="clip20_123_38">
<rect width="27" height="28" fill="white" transform="translate(101.125 79.8857) rotate(-8.27504)"/>
</clipPath>
<clipPath id="clip21_123_38">
<rect width="17.4442" height="17.6736" fill="white" transform="translate(178 69.5107) rotate(-8.27504)"/>
</clipPath>
<clipPath id="clip22_123_38">
<rect width="16.3741" height="16.2243" fill="white" transform="translate(115.716 115.946) rotate(17.0412)"/>
</clipPath>
</defs>
</svg>
